<svg width="10" height="15" viewBox="0 0 10 15" fill="none" xmlns="http://www.w3.org/2000/svg">
<path fill-rule="evenodd" clip-rule="evenodd" d="M0 2.52907C0 2.05904 0.197544 1.60827 0.549175 1.27591C0.900805 0.943553 1.37772 0.756836 1.875 0.756836H7.5C7.99728 0.756836 8.47419 0.943553 8.82582 1.27591C9.17746 1.60827 9.375 2.05904 9.375 2.52907V13.1625C9.375 13.6325 9.17746 14.0833 8.82582 14.4156C8.47419 14.748 7.99728 14.9347 7.5 14.9347H1.875C1.37772 14.9347 0.900805 14.748 0.549175 14.4156C0.197544 14.0833 0 13.6325 0 13.1625V2.52907ZM5.625 12.2763C5.625 12.5114 5.52623 12.7367 5.35041 12.9029C5.1746 13.0691 4.93614 13.1625 4.6875 13.1625C4.43886 13.1625 4.2004 13.0691 4.02459 12.9029C3.84877 12.7367 3.75 12.5114 3.75 12.2763C3.75 12.0413 3.84877 11.8159 4.02459 11.6498C4.2004 11.4836 4.43886 11.3902 4.6875 11.3902C4.93614 11.3902 5.1746 11.4836 5.35041 11.6498C5.52623 11.8159 5.625 12.0413 5.625 12.2763Z" fill="#00213C"/>
</svg>
