<svg width="21" height="22" viewBox="0 0 21 22" fill="none" xmlns="http://www.w3.org/2000/svg">
<path d="M10.5 0.0488281C4.70127 0.0488281 0 4.7501 0 10.5488C0 16.3476 4.70127 21.0488 10.5 21.0488C16.2987 21.0488 21 16.3476 21 10.5488C21 4.7501 16.2987 0.0488281 10.5 0.0488281ZM15.3462 12.1642H10.5C10.2858 12.1642 10.0803 12.0791 9.92887 11.9276C9.7774 11.7762 9.69231 11.5707 9.69231 11.3565V4.08729C9.69231 3.87308 9.7774 3.66764 9.92887 3.51617C10.0803 3.36469 10.2858 3.2796 10.5 3.2796C10.7142 3.2796 10.9197 3.36469 11.0711 3.51617C11.2226 3.66764 11.3077 3.87308 11.3077 4.08729V10.5488H15.3462C15.5604 10.5488 15.7658 10.6339 15.9173 10.7854C16.0688 10.9369 16.1538 11.1423 16.1538 11.3565C16.1538 11.5707 16.0688 11.7762 15.9173 11.9276C15.7658 12.0791 15.5604 12.1642 15.3462 12.1642Z" fill="#00213C"/>
</svg>
