<svg width="84" height="114" viewBox="0 0 84 114" fill="none" xmlns="http://www.w3.org/2000/svg">
<path d="M34.6075 101.084L42.6488 107.44M42.6488 107.44L50.1523 101.084M42.6488 107.44V101.084L42.7364 93.1375C42.8388 83.859 50.3896 76.3911 59.6686 76.3911H68.7096C73.0684 76.3911 76.6018 72.8577 76.6018 68.4989V68.4989C76.6018 64.1402 73.0684 60.6068 68.7096 60.6068H15.3248C10.5072 60.6068 6.60181 56.7014 6.60181 51.8838V51.8838C6.60181 47.0663 10.5072 43.1609 15.3247 43.1609H24.6816C34.729 43.1609 42.8491 34.969 42.7607 24.9219L42.6488 12.2042V7.4397M34.88 17.2629L42.6488 7.4397M42.6488 7.4397L50.1523 17.2629" stroke="white" stroke-width="13" stroke-linecap="round" stroke-linejoin="round"/>
</svg>
