<svg width="99" height="100" viewBox="0 0 99 100" fill="none" xmlns="http://www.w3.org/2000/svg">
<path d="M65.969 92.3858C65.969 90.7289 64.6258 89.3858 62.969 89.3858H37.7242C36.0673 89.3858 34.7242 90.7289 34.7242 92.3858V96.4397C34.7242 98.0965 36.0673 99.4397 37.7242 99.4397H62.969C64.6258 99.4397 65.969 98.0965 65.969 96.4397V92.3858Z" fill="white"/>
<path d="M23.9841 1.84011C22.8081 0.64184 20.8778 0.64184 19.7018 1.84011L1.8117 20.0695C0.666571 21.2364 0.666571 23.1053 1.8117 24.2721L3.42242 25.9134C4.59839 27.1117 6.52877 27.1117 7.70473 25.9134L25.5948 7.68398C26.74 6.51713 26.74 4.64823 25.5948 3.48138L23.9841 1.84011Z" fill="white"/>
<path d="M79.7972 1.62146C78.6212 0.423194 76.6909 0.423194 75.5149 1.62146L73.9042 3.2627C72.7591 4.42955 72.7591 6.29846 73.9042 7.4653L91.7943 25.6947C92.9703 26.893 94.9007 26.893 96.0766 25.6947L97.6873 24.0535C98.8325 22.8866 98.8325 21.0177 97.6873 19.8509L79.7972 1.62146Z" fill="white"/>
<path d="M70.1633 11.8141L65.7375 11.623C64.4613 11.4394 63.1608 11.5606 61.9384 11.9769C60.7161 12.3932 59.6054 13.0933 58.6941 14.0219L49.6422 23.2455L40.1807 13.6045C39.3592 12.7867 38.3343 12.2127 37.2164 11.9443C36.0986 11.6759 34.93 11.7233 33.8366 12.0815C32.8051 12.4011 31.7078 12.4291 30.6619 12.1626C29.616 11.896 28.6608 11.3449 27.8984 10.5681C27.1272 9.78226 25.8613 9.78226 25.0901 10.5681L11.1142 24.8089C9.96907 25.9758 9.96907 27.8447 11.1142 29.0115L11.8936 29.8058L11.706 34.3153C11.5259 35.6157 11.6448 36.9409 12.0534 38.1865C12.4619 39.432 13.149 40.5638 14.0603 41.4924L29.8676 57.5995C30.0788 55.4851 31.073 53.5323 32.6478 52.1387L27.7227 47.1202L28.8855 45.9354L34.0298 51.1772C34.759 50.7542 35.548 50.4487 36.3688 50.2714V44.0817L33.5368 41.1959L34.6996 40.011L36.3688 41.7119V32.7474C36.3505 31.2657 36.8666 29.8286 37.8192 28.7089C38.7718 27.5893 40.0946 26.8648 41.5367 26.6732C42.0805 26.6194 42.6291 26.6447 43.166 26.7482L41.1441 24.688L42.307 23.5032L45.2607 26.5129C45.7838 25.4801 46.5931 24.6265 47.588 24.0581C48.5829 23.4897 49.7198 23.2314 50.8574 23.3153C52.2304 23.4787 53.5039 24.1264 54.4575 25.1461C55.411 26.1658 55.9844 27.4933 56.0783 28.8986C57.0129 28.4459 58.0486 28.2539 59.0797 28.3423C60.5451 28.521 61.8931 29.2479 62.8622 30.3821C63.8314 31.5163 64.3525 32.9768 64.3247 34.4803V40.2175C65.8213 40.536 67.2012 41.273 68.3096 42.346C69.4181 43.4189 70.2112 44.7854 70.6001 46.292L75.1857 41.6194L76.3485 42.8044L70.8966 48.3596C70.8968 48.3826 70.9025 48.4041 70.9025 48.4272V53.9905C72.38 53.8329 73.7602 53.1658 74.8146 52.0995L86.0629 40.6378C86.8656 39.8008 87.4289 38.7564 87.6923 37.6173C87.9556 36.4782 87.9091 35.2875 87.5576 34.1734C87.2439 33.1223 87.2164 32.0042 87.478 30.9384C87.7396 29.8726 88.2805 28.8993 89.0428 28.1225C89.8226 27.328 89.8226 26.0554 89.0428 25.2609L75.146 11.1004C73.9701 9.90214 72.0397 9.90214 70.8637 11.1004L70.1633 11.8141Z" fill="white"/>
<path d="M46.0293 31.8933C45.9044 30.8047 45.3642 29.8099 44.5255 29.1237C43.6868 28.4375 42.6169 28.115 41.5468 28.2259C40.5089 28.3718 39.5597 28.9013 38.8799 29.7138C38.2001 30.5262 37.8369 31.5648 37.8595 32.6322V51.6632C36.115 51.6632 34.4419 52.3694 33.2083 53.6264C31.9747 54.8834 31.2817 56.5882 31.2817 58.3658V74.5752C31.295 75.7454 31.6214 76.8897 32.2256 77.885C32.8298 78.8802 33.689 79.6886 34.7107 80.2232C35.6619 80.7403 36.4573 81.5112 37.0119 82.4532C37.5665 83.3953 37.8595 84.4733 37.8595 85.5718C37.8595 86.6894 38.7655 87.5953 39.883 87.5953H59.5265C61.1833 87.5953 62.5265 86.2522 62.5265 84.5953V83.5006L65.7885 80.447C66.8183 79.6572 67.6539 78.6345 68.2293 77.4594C68.8048 76.2842 69.1043 74.9889 69.1043 73.6756V48.3119C69.1043 46.5343 68.4113 44.8294 67.1777 43.5725C65.9441 42.3155 64.271 41.6093 62.5265 41.6093V34.3662C62.5544 33.2816 62.1875 32.2249 61.4964 31.3996C60.8053 30.5743 59.839 30.0388 58.7835 29.8962C57.7475 29.803 56.7155 30.1144 55.8965 30.7675C55.0775 31.4206 54.5327 32.3664 54.3725 33.4135H55.1264V59.2912H53.4819V33.4135H54.3041V29.3392C54.3321 28.2547 53.9652 27.198 53.2741 26.3727C52.583 25.5473 51.6166 25.0118 50.5612 24.8692C49.9925 24.8172 49.4195 24.8865 48.8785 25.0725C48.3376 25.2586 47.8406 25.5574 47.4192 25.9499C46.9979 26.3425 46.6613 26.8201 46.4311 27.3524C46.2008 27.8848 46.0819 28.4602 46.0818 29.0419V31.8933H46.9041V57.771H45.2596V31.8933H46.0293ZM38.5159 65.9938H36.8715V52.5886H38.5159V65.9938ZM61.7042 42.1296H63.3487V59.629H61.7042V42.1296Z" fill="white"/>
</svg>
