<svg width="79" height="101" viewBox="0 0 79 101" fill="none" xmlns="http://www.w3.org/2000/svg">
<path d="M39.2971 55.2814C48.1628 55.2814 55.3498 48.0944 55.3498 39.2288C55.3498 30.3631 48.1628 23.1761 39.2971 23.1761C30.4315 23.1761 23.2445 30.3631 23.2445 39.2288C23.2445 48.0944 30.4315 55.2814 39.2971 55.2814Z" fill="white"/>
<path d="M77.0579 37.8071C77.5851 37.1235 77.9698 36.3411 78.1891 35.5062C78.4085 34.6713 78.4581 33.8009 78.335 32.9465C78.2119 32.0921 77.9186 31.2711 77.4725 30.5321C77.0264 29.7931 76.4365 29.1511 75.7378 28.6442L73.0038 26.66C72.1023 26.0063 71.3853 25.1303 70.9226 24.1174C70.46 23.1044 70.2673 21.989 70.3635 20.8795L70.6525 17.5128C70.7315 16.6501 70.636 15.7804 70.3716 14.9554C70.1072 14.1304 69.6794 13.3672 69.1138 12.7111C68.5481 12.055 67.8561 11.5195 67.079 11.1366C66.3019 10.7538 65.4557 10.5313 64.5908 10.4824L61.2162 10.2949C60.1048 10.2317 59.0286 9.88186 58.0923 9.27959C57.1561 8.67732 56.3916 7.84305 55.8731 6.85789L54.3108 3.86608C53.9057 3.10306 53.3515 2.42917 52.681 1.88438C52.0105 1.33958 51.2374 0.934982 50.4076 0.69457C49.5779 0.454157 48.7082 0.382829 47.8504 0.484816C46.9925 0.586803 46.1638 0.860027 45.4135 1.28829L42.4764 2.95214C41.5068 3.5012 40.4114 3.78978 39.2971 3.78978C38.1828 3.78978 37.0875 3.5012 36.1179 2.95214L33.1807 1.28829C32.4289 0.862458 31.5992 0.591979 30.7408 0.492896C29.8824 0.393814 29.0129 0.468145 28.1838 0.711482C27.3547 0.954818 26.583 1.3622 25.9143 1.90946C25.2456 2.45672 24.6937 3.13271 24.2912 3.89733L22.7289 6.88913C22.2105 7.8743 21.446 8.70856 20.5097 9.31084C19.5735 9.91311 18.4973 10.2629 17.3859 10.3262L14.0113 10.5137C13.1464 10.5625 12.3002 10.785 11.5231 11.1679C10.746 11.5508 10.054 12.0862 9.48833 12.7423C8.92264 13.3984 8.49486 14.1617 8.23049 14.9866C7.96613 15.8116 7.87059 16.6813 7.94957 17.544L8.2386 20.9108C8.33475 22.0202 8.14213 23.1357 7.67945 24.1486C7.21678 25.1616 6.49982 26.0375 5.59831 26.6913L2.86428 28.6754C2.16559 29.1824 1.57573 29.8243 1.12961 30.5633C0.683501 31.3024 0.390212 32.1234 0.267115 32.9778C0.144017 33.8322 0.193612 34.7026 0.412966 35.5375C0.632319 36.3724 1.01697 37.1548 1.54414 37.8383L3.60638 40.5098C4.28707 41.3908 4.72825 42.4328 4.88703 43.5347C5.04581 44.6366 4.91679 45.7608 4.51251 46.7981L3.2861 49.9227C2.9726 50.7268 2.8236 51.5857 2.84795 52.4484C2.87229 53.3112 3.06948 54.1603 3.42783 54.9455C3.78619 55.7306 4.29843 56.4359 4.93423 57.0196C5.57003 57.6033 6.31647 58.0535 7.12936 58.3435L10.3086 59.4762C11.3583 59.8494 12.2935 60.488 13.0231 61.3299C13.7527 62.1717 14.252 63.1882 14.4722 64.2803L15.0815 67.2486L6.96532 93.6281L19.8387 89.5973L27.8533 100.44L35.1727 76.5131C36.2682 77.4224 37.6338 77.9438 39.0566 77.996C40.4794 78.0483 41.8795 77.6285 43.0388 76.8021L50.741 100.44L58.7556 89.5973L71.629 93.6281L63.3175 68.1313C63.3722 67.9517 63.4191 67.7798 63.4581 67.5923L64.1221 64.2803C64.3423 63.1882 64.8415 62.1717 65.5712 61.3299C66.3008 60.488 67.2359 59.8494 68.2856 59.4762L71.4649 58.3435C72.2778 58.0535 73.0242 57.6033 73.66 57.0196C74.2959 56.4359 74.8081 55.7306 75.1664 54.9455C75.5248 54.1603 75.722 53.3112 75.7463 52.4484C75.7707 51.5857 75.6217 50.7268 75.3082 49.9227L74.0818 46.7981C73.6775 45.7608 73.5485 44.6366 73.7073 43.5347C73.866 42.4328 74.3072 41.3908 74.9879 40.5098L77.0579 37.8071ZM16.9953 39.2288C16.9953 34.8179 18.3033 30.506 20.7538 26.8385C23.2044 23.171 26.6875 20.3125 30.7626 18.6245C34.8377 16.9366 39.3219 16.4949 43.648 17.3554C47.9741 18.216 51.948 20.34 55.0669 23.459C58.1859 26.5779 60.3099 30.5518 61.1705 34.8779C62.031 39.204 61.5893 43.6882 59.9014 47.7633C58.2134 51.8384 55.3549 55.3215 51.6874 57.7721C48.0199 60.2226 43.708 61.5306 39.2971 61.5306C33.3842 61.5244 27.7153 59.1728 23.5342 54.9917C19.3531 50.8106 17.0015 45.1417 16.9953 39.2288Z" fill="white"/>
</svg>
