<svg width="90" height="101" viewBox="0 0 90 101" fill="none" xmlns="http://www.w3.org/2000/svg">
<path fill-rule="evenodd" clip-rule="evenodd" d="M45.2142 0.439726C46.0024 0.444684 46.6373 1.09073 46.6324 1.88271L46.542 16.3904C46.5371 17.1823 45.8941 17.8203 45.106 17.8154C44.3178 17.8104 43.6829 17.1644 43.6879 16.3724L43.7782 1.86475C43.7832 1.07278 44.4261 0.434768 45.2142 0.439726Z" fill="white"/>
<path fill-rule="evenodd" clip-rule="evenodd" d="M85.838 13.9301C86.4286 14.4545 86.4844 15.3607 85.9625 15.9542L77.0098 26.1359C76.4879 26.7294 75.5861 26.7854 74.9954 26.261C74.4048 25.7366 74.349 24.8303 74.8709 24.2368L83.8236 14.0552C84.3455 13.4617 85.2473 13.4057 85.838 13.9301Z" fill="white"/>
<path fill-rule="evenodd" clip-rule="evenodd" d="M74.2897 54.2805C74.2963 53.4886 74.9405 52.8519 75.7287 52.8585L88.3014 52.9637C89.0896 52.9702 89.7232 53.6176 89.7166 54.4096C89.71 55.2015 89.0658 55.8382 88.2777 55.8316L75.7049 55.7265C74.9168 55.7199 74.2832 55.0725 74.2897 54.2805Z" fill="white"/>
<path fill-rule="evenodd" clip-rule="evenodd" d="M-0.000498833 53.6639C0.00606114 52.8719 0.650293 52.2353 1.43843 52.2419L14.0112 52.347C14.7993 52.3536 15.4329 53.001 15.4264 53.7929C15.4198 54.5849 14.7756 55.2216 13.9875 55.215L1.41468 55.1098C0.626537 55.1032 -0.00705881 54.4559 -0.000498833 53.6639Z" fill="white"/>
<path fill-rule="evenodd" clip-rule="evenodd" d="M74.7695 80.9075C75.3268 80.3475 76.2304 80.3475 76.7877 80.9075L85.6786 89.8416C86.2359 90.4016 86.2359 91.3096 85.6786 91.8696C85.1213 92.4296 84.2177 92.4296 83.6603 91.8696L74.7695 82.9356C74.2122 82.3755 74.2122 81.4675 74.7695 80.9075Z" fill="white"/>
<path fill-rule="evenodd" clip-rule="evenodd" d="M4.39748 17.1052C4.9954 16.5892 5.8964 16.6579 6.40992 17.2587L15.2389 27.5885C15.7525 28.1894 15.684 29.0947 15.0861 29.6107C14.4882 30.1268 13.5872 30.058 13.0737 29.4572L4.24469 19.1274C3.73116 18.5266 3.79957 17.6212 4.39748 17.1052Z" fill="white"/>
<path d="M66.217 79.8613L25.83 85.4636C24.4695 85.6548 23.2184 84.5076 23.0567 82.9493L22.9758 82.1319C22.8141 80.5592 23.794 79.1204 25.1545 78.9292L65.5368 73.3221C66.8973 73.1309 68.1484 74.2781 68.3101 75.8364L68.3957 76.6538C68.5622 78.2313 67.5823 79.6701 66.217 79.8613Z" fill="white"/>
<path fill-rule="evenodd" clip-rule="evenodd" d="M66.8907 75.9852C66.7916 75.0308 66.107 74.69 65.7344 74.7423L25.3522 80.3494L25.3514 80.3495C24.9152 80.4114 24.2945 81.0038 24.3954 81.9845L24.3959 81.99L24.4764 82.8035C24.5766 83.7556 25.2602 84.0957 25.6323 84.0434L66.02 78.441L66.0207 78.4409C66.4612 78.3787 67.0803 77.7875 66.9766 76.8051L66.9765 76.804L66.8907 75.9852ZM69.7294 75.6863C69.5044 73.5251 67.6879 71.5727 65.3406 71.9017L65.3391 71.9019L24.9568 77.509C22.6732 77.8299 21.335 80.1131 21.556 82.2762C21.5561 82.2773 21.5562 82.2783 21.5563 82.2793L21.6369 83.0946L21.6373 83.098C21.8617 85.2599 23.6786 87.2133 26.0266 86.884L26.0277 86.8838L66.414 81.2816C68.7037 80.961 70.0437 78.6753 69.815 76.5037M69.7294 75.6863L69.8149 76.5026L69.7294 75.6863Z" fill="white"/>
<path d="M65.7889 67.5143L25.4304 73.1213C24.0699 73.3126 22.8188 72.1653 22.6571 70.607L22.5715 69.7896C22.4097 68.2169 23.3897 66.7781 24.7502 66.5869L65.1324 60.9799C66.4929 60.7886 67.744 61.9359 67.9058 63.4942L67.9914 64.3116C68.1674 65.8843 67.1732 67.3279 65.7889 67.5143Z" fill="white"/>
<path fill-rule="evenodd" clip-rule="evenodd" d="M66.4864 63.6429C66.3873 62.6886 65.7026 62.3477 65.3301 62.4001L24.9478 68.0071L24.9471 68.0072C24.5111 68.0691 23.8907 68.661 23.9909 69.641L23.991 69.6422L24.0765 70.4583C24.1755 71.4126 24.8602 71.7535 25.2328 71.7011L65.5934 66.0938L65.5993 66.0929C66.066 66.0301 66.6802 65.4277 66.5732 64.4719L66.5727 64.4668L66.4864 63.6429ZM69.3252 63.3454C69.1008 61.1836 67.284 59.2304 64.9362 59.5594L64.9347 59.5596L24.5525 65.1667C22.2678 65.4878 20.9294 67.7729 21.1519 69.937L21.2378 70.7566C21.4625 72.9181 23.2793 74.8709 25.6269 74.5417L25.6281 74.5416L65.9785 68.9356C65.9796 68.9354 65.9807 68.9353 65.9818 68.9351C68.2799 68.6236 69.6523 66.3434 69.4101 64.1565C69.4099 64.1548 69.4097 64.1531 69.4096 64.1513L69.3252 63.3454Z" fill="white"/>
<path d="M65.4036 55.172L25.0213 60.7743C23.6608 60.9655 22.4097 59.8183 22.248 58.26L22.1624 57.4426C22.0006 55.8699 22.9806 54.4311 24.3411 54.2399L64.7233 48.6328C66.0838 48.4416 67.3349 49.5888 67.4967 51.1472L67.5823 51.9646C67.7488 53.542 66.7688 54.9808 65.4036 55.172Z" fill="white"/>
<path fill-rule="evenodd" clip-rule="evenodd" d="M66.0772 51.2959C65.9782 50.3415 65.2935 50.0007 64.921 50.053L24.5387 55.6601L24.538 55.6602C24.1019 55.7221 23.4816 56.314 23.5818 57.2939L23.5819 57.2952L23.6674 58.1112C23.7664 59.0656 24.4511 59.4064 24.8237 59.3541L65.2066 53.7517L65.2074 53.7516C65.6478 53.6893 66.2668 53.0981 66.1631 52.1158L66.0772 51.2959ZM68.9161 50.9984C68.6917 48.8366 66.8749 46.8834 64.5271 47.2124L64.5256 47.2126L24.1434 52.8197C21.8587 53.1408 20.5203 55.4259 20.7428 57.59L20.8287 58.4095C21.0534 60.5711 22.8701 62.5238 25.2177 62.1947L25.219 62.1945L65.6006 56.5923C67.8906 56.2716 69.2307 53.9853 69.0014 51.8133L68.9161 50.9984Z" fill="white"/>
<path d="M64.9992 42.825L24.617 48.432C23.2565 48.6233 22.0054 47.476 21.8436 45.9177L21.758 45.1003C21.5963 43.5276 22.5762 42.0888 23.9367 41.8976L64.3142 36.2906C65.6747 36.0993 66.9258 37.2466 67.0876 38.8049L67.1732 39.6223C67.3397 41.195 66.3597 42.6385 64.9992 42.825Z" fill="white"/>
<path fill-rule="evenodd" clip-rule="evenodd" d="M65.6681 38.9537C65.5691 37.9993 64.8844 37.6584 64.5119 37.7108L24.1344 43.3178L24.1337 43.3179C23.6976 43.3798 23.0772 43.9717 23.1774 44.9517L23.1776 44.9529L23.263 45.769C23.3621 46.7233 24.0468 47.0642 24.4193 47.0118L64.8064 41.4041C65.2347 41.3454 65.8581 40.7563 65.7541 39.774L65.6681 38.9537ZM68.507 38.6561C68.2826 36.4943 66.4658 34.5411 64.118 34.8701L64.1165 34.8703L23.7391 40.4774C21.4543 40.7985 20.1159 43.0837 20.3385 45.2477L20.4243 46.0671C20.649 48.2288 22.4658 50.1817 24.8135 49.8524L24.8146 49.8523L65.192 44.2459L65.1935 44.2457C67.4853 43.9307 68.8212 41.6331 68.5923 39.4706L68.507 38.6561Z" fill="white"/>
<path d="M64.5901 30.4827L24.2079 36.0755C22.8474 36.2667 21.5963 35.1194 21.4345 33.5611L21.3489 32.7437C21.1872 31.1711 22.1671 29.7322 23.5276 29.541L63.8861 23.9483C65.2466 23.7571 66.4977 24.9043 66.6594 26.4626L66.745 27.28C66.9353 28.8527 65.9554 30.2915 64.5901 30.4827Z" fill="white"/>
<path fill-rule="evenodd" clip-rule="evenodd" d="M65.24 26.6114C65.141 25.657 64.4563 25.3162 64.0838 25.3685L64.081 25.3689L23.7253 30.9613L23.7244 30.9614C23.2883 31.0234 22.6681 31.6153 22.7683 32.5951L22.7685 32.5963L22.8539 33.4124C22.953 34.3667 23.6377 34.7076 24.0102 34.6552L24.013 34.6549L64.3931 29.0624L64.394 29.0623C64.8361 28.9997 65.4443 28.4114 65.3284 27.4531L65.327 27.4416L65.24 26.6114ZM68.0787 26.3125C67.8537 24.1513 66.0373 22.199 63.6901 22.5279L63.6884 22.5281L23.33 28.1208C21.0452 28.4419 19.7068 30.7271 19.9294 32.8911L20.0152 33.7105C20.2399 35.872 22.0564 37.8248 24.4039 37.4959L24.4055 37.4957L64.7871 31.903C67.0711 31.5832 68.4211 29.3022 68.1632 27.1195L68.0787 26.3125Z" fill="white"/>
<path d="M35.1538 89.7848C35.7313 91.2979 36.0217 92.9062 36.01 94.5267C36.01 96.9454 37.6845 98.9196 39.7776 98.9387L47.8645 99.0057C49.9623 99.0057 51.6701 97.0936 51.6701 94.6558C51.6666 91.9469 52.5417 89.3106 54.1628 87.1462L35.1538 89.7848Z" fill="white"/>
<path fill-rule="evenodd" clip-rule="evenodd" d="M57.3661 85.2539L55.303 88.0085C53.8685 89.9239 53.0941 92.2568 53.0972 94.6539L53.0972 94.6558C53.0972 97.7155 50.9097 100.44 47.8645 100.44H47.8586L39.7646 100.373C36.701 100.345 34.5829 97.5296 34.5829 94.5267V94.5215L34.5829 94.5163C34.5934 93.0749 34.335 91.6442 33.8213 90.2984L33.1774 88.6115L57.3661 85.2539ZM37.0183 90.9737C37.3041 92.1352 37.4453 93.3303 37.4371 94.5314C37.4392 96.3628 38.6684 97.494 39.7898 97.5048L39.7905 97.5048L47.8695 97.5716C49.0183 97.5684 50.2426 96.4694 50.243 94.6567C50.2406 92.6857 50.6553 90.7493 51.446 88.971L37.0183 90.9737Z" fill="white"/>
<path fill-rule="evenodd" clip-rule="evenodd" d="M15.0275 80.8263C15.5848 81.3863 15.5848 82.2943 15.0275 82.8543L6.13662 91.7883C5.5793 92.3484 4.67571 92.3484 4.11839 91.7883C3.56108 91.2283 3.56108 90.3203 4.11839 89.7603L13.0092 80.8263C13.5666 80.2662 14.4702 80.2662 15.0275 80.8263Z" fill="white"/>
<path fill-rule="evenodd" clip-rule="evenodd" d="M65.8081 22.8933L67.0228 30.9498L66.5525 31.0215L65.4085 23.4346L20.944 29.9186L20.8757 29.4455L65.8081 22.8933Z" fill="white"/>
</svg>
