<svg width="26" height="26" viewBox="0 0 26 26" fill="none" xmlns="http://www.w3.org/2000/svg">
<g clip-path="url(#clip0)">
<path d="M8.45102 25.5C3.32891 22.6132 1.98037 19.8808 2.75137 16.1489C3.32056 13.3933 5.18433 11.1513 5.36304 8.40094C6.15918 9.84977 6.49185 10.8945 6.58081 12.4085C9.11295 9.30615 10.7862 5.01138 10.8853 0.5C10.8853 0.5 17.4806 4.37521 17.9134 10.2288C18.4812 9.02223 18.767 7.106 18.1992 5.86408C19.9025 7.10606 29.872 18.1315 16.8489 25.5C19.2973 20.7325 17.4805 14.2998 13.2293 11.3288C13.5132 12.6063 13.0154 17.3709 11.1347 19.4645C11.6558 15.9663 10.6388 14.4871 10.6388 14.4871C10.6388 14.4871 10.2898 16.4465 8.93554 18.4259C7.69887 20.2335 6.842 22.1519 8.45102 25.5Z" fill="white"/>
</g>
<defs>
<clipPath id="clip0">
<rect width="25" height="25" fill="white" transform="translate(0.5 0.5)"/>
</clipPath>
</defs>
</svg>
