<svg width="20" height="20" viewBox="0 0 20 20" fill="none" xmlns="http://www.w3.org/2000/svg">
<circle cx="10" cy="10" r="10" fill="#C50000"/>
<path d="M9.17 4.5H10.865L10.58 11.685H9.44L9.17 4.5ZM10.025 15.09C9.745 15.09 9.51 15 9.32 14.82C9.13 14.63 9.035 14.4 9.035 14.13C9.035 13.86 9.13 13.635 9.32 13.455C9.51 13.265 9.745 13.17 10.025 13.17C10.305 13.17 10.535 13.265 10.715 13.455C10.895 13.635 10.985 13.86 10.985 14.13C10.985 14.4 10.89 14.63 10.7 14.82C10.52 15 10.295 15.09 10.025 15.09Z" fill="white"/>
</svg>
