<svg width="77" height="47" viewBox="0 0 77 47" fill="none" xmlns="http://www.w3.org/2000/svg">
<path d="M27.8938 10.6851C27.8938 4.66247 32.3938 0.0569153 38.2785 0.0569153C44.1631 0.0569153 48.6631 4.66247 48.6631 10.6851C48.6631 16.7078 44.1631 21.3133 38.2785 21.3133C32.3938 21.3133 27.8938 16.7078 27.8938 10.6851ZM38.2785 28.3988C22.3554 28.3988 17.5092 40.0898 17.5092 40.0898V46.1125H59.0477V40.0898C59.0477 40.0898 54.2015 28.3988 38.2785 28.3988Z" fill="#00213C"/>
<path d="M60.7785 17.7706C65.5579 17.7706 69.4323 13.8053 69.4323 8.91375C69.4323 4.02226 65.5579 0.0569153 60.7785 0.0569153C55.9991 0.0569153 52.1246 4.02226 52.1246 8.91375C52.1246 13.8053 55.9991 17.7706 60.7785 17.7706Z" fill="#00213C"/>
<path d="M60.7785 24.8561C56.6246 24.8561 53.5092 25.9189 51.0862 27.6903C59.0477 31.5873 62.1631 38.3185 62.1631 39.027V39.3813H76.3554V34.7757C76.3554 34.4215 72.5477 24.8561 60.7785 24.8561Z" fill="#00213C"/>
<path d="M60.7785 17.7706C65.5579 17.7706 69.4323 13.8053 69.4323 8.91375C69.4323 4.02226 65.5579 0.0569153 60.7785 0.0569153C55.9991 0.0569153 52.1246 4.02226 52.1246 8.91375C52.1246 13.8053 55.9991 17.7706 60.7785 17.7706Z" fill="#00213C"/>
<path d="M60.7785 24.8561C56.6246 24.8561 53.5092 25.9189 51.0862 27.6903C59.0477 31.5873 62.1631 38.3185 62.1631 39.027V39.3813H76.3554V34.7757C76.3554 34.4215 72.5477 24.8561 60.7785 24.8561Z" fill="#00213C"/>
<path d="M15.7785 17.7706C20.5579 17.7706 24.4323 13.8053 24.4323 8.91375C24.4323 4.02226 20.5579 0.0569153 15.7785 0.0569153C10.9991 0.0569153 7.12462 4.02226 7.12462 8.91375C7.12462 13.8053 10.9991 17.7706 15.7785 17.7706Z" fill="#00213C"/>
<path d="M15.7785 24.8561C19.9323 24.8561 23.0477 25.9189 25.4708 27.6903C17.5092 31.5873 14.3938 38.3185 14.3938 39.027V39.3813H0.201538V34.7757C0.201538 34.4215 4.00923 24.8561 15.7785 24.8561Z" fill="#00213C"/>
</svg>
