<svg width="46" height="58" viewBox="0 0 46 58" fill="none" xmlns="http://www.w3.org/2000/svg">
<path d="M22.6989 31.7175C27.8006 31.7175 31.9364 27.5817 31.9364 22.48C31.9364 17.3783 27.8006 13.2425 22.6989 13.2425C17.5972 13.2425 13.4614 17.3783 13.4614 22.48C13.4614 27.5817 17.5972 31.7175 22.6989 31.7175Z" fill="#00213C"/>
<path d="M44.4284 21.6619C44.7317 21.2686 44.9531 20.8183 45.0793 20.3379C45.2055 19.8575 45.2341 19.3566 45.1632 18.8649C45.0924 18.3732 44.9236 17.9008 44.6669 17.4755C44.4102 17.0503 44.0707 16.6808 43.6687 16.3891L42.0954 15.2474C41.5766 14.8712 41.164 14.3671 40.8978 13.7842C40.6316 13.2013 40.5207 12.5594 40.576 11.921L40.7424 9.98357C40.7878 9.48714 40.7328 8.98665 40.5807 8.51192C40.4286 8.0372 40.1824 7.59797 39.8569 7.22043C39.5314 6.84289 39.1331 6.53476 38.686 6.31443C38.2388 6.09409 37.7519 5.96606 37.2541 5.93796L35.3122 5.83007C34.6727 5.79365 34.0534 5.59236 33.5146 5.24579C32.9758 4.89921 32.5359 4.41913 32.2376 3.85222L31.3386 2.13059C31.1054 1.69151 30.7865 1.30372 30.4006 0.990214C30.0148 0.676713 29.57 0.443886 29.0925 0.305541C28.615 0.167196 28.1145 0.12615 27.6209 0.184838C27.1272 0.243526 26.6504 0.400753 26.2186 0.647194L24.5284 1.60466C23.9705 1.92061 23.3402 2.08668 22.6989 2.08668C22.0577 2.08668 21.4274 1.92061 20.8694 1.60466L19.1792 0.647194C18.7466 0.402152 18.2691 0.246505 17.7752 0.189488C17.2812 0.132471 16.7809 0.175245 16.3038 0.315273C15.8267 0.4553 15.3826 0.689729 14.9978 1.00465C14.613 1.31957 14.2954 1.70857 14.0638 2.14857L13.1648 3.8702C12.8664 4.43711 12.4265 4.91719 11.8877 5.26377C11.349 5.61035 10.7297 5.81163 10.0901 5.84805L8.1482 5.95594C7.65049 5.98404 7.16354 6.11207 6.71637 6.33241C6.26921 6.55274 5.87099 6.86087 5.54546 7.23841C5.21994 7.61596 4.97377 8.05518 4.82164 8.5299C4.66951 9.00463 4.61453 9.50512 4.65999 10.0015L4.8263 11.9389C4.88164 12.5774 4.77079 13.2193 4.50455 13.8022C4.2383 14.3851 3.82573 14.8891 3.30695 15.2653L1.73366 16.4071C1.3316 16.6988 0.992159 17.0682 0.735443 17.4935C0.478728 17.9188 0.309955 18.3912 0.239119 18.8829C0.168282 19.3746 0.196822 19.8754 0.323048 20.3559C0.449275 20.8363 0.670622 21.2865 0.973982 21.6799L2.16069 23.2172C2.5524 23.7241 2.80627 24.3238 2.89764 24.9579C2.98902 25.592 2.91477 26.2389 2.68213 26.8358L1.97639 28.6338C1.79599 29.0966 1.71025 29.5908 1.72426 30.0873C1.73827 30.5837 1.85174 31.0724 2.05795 31.5242C2.26417 31.976 2.55894 32.3819 2.92481 32.7178C3.29068 33.0536 3.72022 33.3127 4.188 33.4796L6.01751 34.1314C6.62155 34.3461 7.1597 34.7136 7.57956 35.1981C7.99942 35.6825 8.28669 36.2675 8.41342 36.8959L8.76404 38.604L4.0936 53.7841L11.5016 51.4646L16.1136 57.7038L20.3255 43.9353C20.9559 44.4585 21.7417 44.7585 22.5605 44.7886C23.3792 44.8187 24.1849 44.5771 24.8521 44.1016L29.2843 57.7038L33.8963 51.4646L41.3042 53.7841L36.5214 39.112C36.5529 39.0086 36.5799 38.9097 36.6023 38.8018L36.9844 36.8959C37.1112 36.2675 37.3984 35.6825 37.8183 35.1981C38.2382 34.7136 38.7763 34.3461 39.3803 34.1314L41.2099 33.4796C41.6776 33.3127 42.1072 33.0536 42.473 32.7178C42.8389 32.3819 43.1337 31.976 43.3399 31.5242C43.5461 31.0724 43.6596 30.5837 43.6736 30.0873C43.6876 29.5908 43.6019 29.0966 43.4215 28.6338L42.7157 26.8358C42.4831 26.2389 42.4088 25.592 42.5002 24.9579C42.5916 24.3238 42.8455 23.7241 43.2372 23.2172L44.4284 21.6619ZM9.86534 22.48C9.86534 19.9418 10.618 17.4605 12.0282 15.3501C13.4384 13.2396 15.4427 11.5947 17.7877 10.6233C20.1328 9.65199 22.7132 9.39784 25.2026 9.89303C27.6921 10.3882 29.9788 11.6105 31.7736 13.4053C33.5684 15.2001 34.7907 17.4868 35.2859 19.9763C35.7811 22.4658 35.527 25.0462 34.5556 27.3912C33.5843 29.7362 31.9394 31.7406 29.8289 33.1508C27.7184 34.5609 25.2372 35.3136 22.6989 35.3136C19.2963 35.31 16.0341 33.9568 13.6282 31.5508C11.2222 29.1448 9.86891 25.8826 9.86534 22.48Z" fill="#00213C"/>
</svg>
