<svg width="56" height="48" viewBox="0 0 56 48" fill="none" xmlns="http://www.w3.org/2000/svg">
<path d="M44.4 3.83373C44.4358 2.09607 44.3714 0.998108 44.3714 0.998108H11.0181C11.0181 0.998108 10.9554 2.09607 10.9912 3.83373H0V5.68871C0 6.11213 0.0698481 16.1001 6.09289 21.5715C8.60563 23.8536 11.7398 25.001 15.4346 25.0029C15.9934 25.0029 16.5683 24.9644 17.1504 24.9131C19.2494 27.855 21.6744 29.9153 24.402 30.9417V39.0894H16.3946V44.1924H13.7493V47.0537H41.6419V44.1942H38.9949V39.0912H30.9874V30.9436C33.7133 29.9171 36.14 27.8568 38.2391 24.9149C38.8247 24.9662 39.3996 25.0029 39.9584 25.0029C43.6514 24.9992 46.7856 23.8536 49.2983 21.5697C55.3214 16.0982 55.3912 6.1103 55.3912 5.68688V3.83373H44.4ZM8.5107 18.8056C5.07025 15.6895 4.05297 10.3555 3.75209 7.54369H11.199C11.5142 11.0465 12.2556 15.4109 13.966 19.2473C14.2794 19.9512 14.609 20.6184 14.9457 21.2709C12.3792 21.1701 10.2193 20.3508 8.5107 18.8056ZM46.8805 18.8056C45.1737 20.3526 43.012 21.1701 40.4473 21.2709C40.784 20.6202 41.1136 19.9512 41.427 19.2473C43.1374 15.4109 43.8788 11.0465 44.1923 7.54369H51.6391C51.3382 10.3537 50.3228 15.6876 46.8805 18.8056Z" fill="#00213C"/>
</svg>
