<svg width="55" height="47" viewBox="0 0 55 47" fill="none" xmlns="http://www.w3.org/2000/svg">
<path d="M16.8298 25.0385H38.9249C39.9429 25.0385 40.7662 24.4349 40.7662 23.6892V7.40799C40.7662 6.66238 39.9429 6.05872 38.9249 6.05872H33.4012V4.70944C33.4012 2.47752 30.9231 0.661621 27.8774 0.661621C24.8316 0.661621 22.3536 2.47752 22.3536 4.70944V6.05872H16.8298C15.8123 6.05872 14.9886 6.66238 14.9886 7.40799V23.6892C14.9886 24.4349 15.8123 25.0385 16.8298 25.0385ZM26.0361 4.70944C26.0361 3.96488 26.8632 3.36017 27.8774 3.36017C28.8915 3.36017 29.7186 3.96488 29.7186 4.70944V6.05872H26.0361V4.70944Z" fill="#00213C"/>
<path d="M54.7017 22.9907C54.3709 22.5877 53.7701 22.3399 53.1266 22.3399C49.8823 22.3399 46.9061 23.6594 45.4 25.7651L39.752 33.664C38.7921 35.0027 36.9182 35.8327 34.8578 35.8327H22.3536C21.3361 35.8327 20.5123 35.229 20.5123 34.4834C20.5123 33.7378 21.3361 33.1341 22.3536 33.1341H34.8574C35.5445 33.1341 36.1702 32.8576 36.4905 32.4107C36.8094 31.9644 37.7727 30.6169 38.6008 29.4588C38.8616 29.094 38.8434 28.6559 38.5523 28.3035C38.2608 27.9514 37.7396 27.737 37.1776 27.737H18.0381C15.5783 27.737 13.2695 28.4394 11.529 29.7135L0.639651 37.6932C-0.0795909 38.2203 -0.0795909 39.0741 0.639651 39.6012L9.84595 46.3215C10.2056 46.5851 10.6769 46.7172 11.1478 46.7172C11.6186 46.7172 12.09 46.5851 12.4496 46.3215L19.4334 41.2298H34.8574C39.6657 41.2298 44.0421 39.2902 46.2756 36.1686L54.7554 24.3164C55.0575 23.8986 55.0359 23.3955 54.7017 22.9907Z" fill="#00213C"/>
</svg>
