<svg width="16" height="22" viewBox="0 0 16 22" fill="none" xmlns="http://www.w3.org/2000/svg">
<path d="M7.55008 0.0493164C3.37596 0.0493164 0 3.42528 0 7.59939C0 12.0971 4.76733 18.2989 6.73035 20.661C7.16179 21.1787 7.94915 21.1787 8.38059 20.661C10.3328 18.2989 15.1002 12.0971 15.1002 7.59939C15.1002 3.42528 11.7242 0.0493164 7.55008 0.0493164ZM7.55008 10.2958C6.83493 10.2958 6.14908 10.0118 5.64339 9.50608C5.13771 9.00039 4.85362 8.31454 4.85362 7.59939C4.85362 6.88425 5.13771 6.19839 5.64339 5.69271C6.14908 5.18703 6.83493 4.90294 7.55008 4.90294C8.26522 4.90294 8.95108 5.18703 9.45676 5.69271C9.96244 6.19839 10.2465 6.88425 10.2465 7.59939C10.2465 8.31454 9.96244 9.00039 9.45676 9.50608C8.95108 10.0118 8.26522 10.2958 7.55008 10.2958Z" fill="#00213C"/>
</svg>
