<svg width="126" height="51" viewBox="0 0 126 51" fill="none" xmlns="http://www.w3.org/2000/svg">
<g clip-path="url(#clip0)">
<path d="M38.614 0.765853V4.8408C38.614 4.94919 38.5768 5.0555 38.5059 5.14791C38.4351 5.24029 38.334 5.31521 38.2133 5.36423C38.0923 5.41329 37.9572 5.43459 37.8221 5.42576C37.6873 5.41696 37.558 5.37835 37.4489 5.31424L29.1783 0.455863C29.0444 0.377647 28.8813 0.338121 28.7157 0.343752C28.5501 0.349383 28.3919 0.399832 28.2668 0.486858L1.36417 19.0693C1.25169 19.1476 1.17172 19.2515 1.13495 19.3671C1.09817 19.4828 1.10634 19.6046 1.15837 19.7164C1.2104 19.8283 1.30381 19.9247 1.42611 19.9929C1.54841 20.061 1.69379 20.0977 1.84281 20.098H5.75996C5.94915 20.1038 6.1282 20.1681 6.25949 20.2774C6.39074 20.3867 6.46397 20.5325 6.46382 20.6841V40.7319C6.46462 40.8468 6.50757 40.9592 6.58741 41.0547C6.66725 41.1503 6.7804 41.225 6.91281 41.2695C7.04522 41.3137 7.19102 41.3263 7.3321 41.3047C7.47318 41.2832 7.60327 41.2293 7.7062 41.1492L47.8593 9.51883C47.9286 9.46445 47.9836 9.39952 48.0211 9.3279C48.0587 9.25629 48.0778 9.17939 48.0775 9.10174V0.765853C48.0775 0.610882 48.0009 0.462217 47.8643 0.352369C47.7278 0.242523 47.5428 0.180432 47.3492 0.179688H39.3459C39.1519 0.179688 38.9655 0.241445 38.8282 0.351372C38.6909 0.461297 38.614 0.610393 38.614 0.765853ZM19.5913 26.619H12.7531C12.5589 26.619 12.3727 26.5572 12.2354 26.4473C12.0981 26.3374 12.021 26.1883 12.021 26.0328V20.7236C12.021 20.5681 12.0981 20.419 12.2354 20.3091C12.3727 20.1991 12.5589 20.1374 12.7531 20.1374H19.5913C19.7855 20.1374 19.9717 20.1991 20.1089 20.3091C20.2462 20.419 20.3234 20.5681 20.3234 20.7236V26.0384C20.3215 26.193 20.2436 26.3406 20.1065 26.4493C19.9694 26.558 19.7843 26.619 19.5913 26.619Z" fill="#F7875F" stroke="#F7875F" stroke-miterlimit="10"/>
<path d="M48.0773 18.3375V14.2367C48.0773 14.1405 48.0426 14.0464 47.978 13.9663C47.9129 13.8862 47.8208 13.8237 47.7132 13.7866C47.6051 13.7494 47.4863 13.7394 47.3714 13.7577C47.2569 13.7759 47.151 13.8217 47.0679 13.8893L7.2565 46.034C7.17297 46.1019 7.11582 46.1888 7.09219 46.2833C7.0686 46.3781 7.07962 46.4761 7.12391 46.5656C7.16817 46.6553 7.24371 46.7318 7.34093 46.7861C7.43815 46.84 7.55267 46.8694 7.67005 46.8698H13.3741C13.5314 46.8698 13.6823 46.8184 13.7935 46.7268C13.9048 46.6352 13.9673 46.511 13.9673 46.3817V45.6774H14.8229C14.9762 45.6777 15.1233 45.7269 15.2337 45.8142C15.3442 45.9018 15.4095 46.0207 15.4161 46.1468V46.3817C15.4213 46.5074 15.4858 46.627 15.5959 46.7146C15.7061 46.8022 15.8533 46.8511 16.0065 46.8511H16.7851C16.9424 46.8511 17.0933 46.7997 17.2045 46.7081C17.3158 46.6166 17.3783 46.4923 17.3783 46.3626V45.6587H18.2339C18.3871 45.6591 18.5343 45.7083 18.6448 45.7955C18.7552 45.8828 18.8205 46.002 18.8271 46.1281V46.3626C18.8323 46.4887 18.8968 46.6083 19.0069 46.6959C19.1171 46.7832 19.2643 46.8324 19.4175 46.8324H20.1961C20.3534 46.8324 20.5043 46.7807 20.6156 46.6891C20.7268 46.5975 20.7893 46.4736 20.7893 46.344V45.6397H21.6449C21.7982 45.6404 21.9453 45.6892 22.0557 45.7769C22.1662 45.8641 22.2315 45.9834 22.2381 46.1091V46.344C22.2433 46.47 22.3078 46.5893 22.418 46.6769C22.5281 46.7645 22.6753 46.8134 22.8285 46.8134H23.6071C23.7644 46.8134 23.9153 46.762 24.0266 46.6704C24.1378 46.5789 24.2003 46.4546 24.2003 46.3253V45.621H25.0559C25.2092 45.6213 25.3563 45.6705 25.4668 45.7578C25.5772 45.8455 25.6426 45.9643 25.6491 46.0904V46.3253C25.6543 46.4513 25.7188 46.5706 25.829 46.6582C25.9391 46.7459 26.0863 46.7947 26.2395 46.7947H27.0181C27.096 46.7947 27.1732 46.7821 27.2451 46.7574C27.3171 46.7329 27.3825 46.697 27.4376 46.6518C27.4927 46.6065 27.5364 46.5526 27.5662 46.4934C27.596 46.4341 27.6113 46.3705 27.6113 46.3063V45.6023H28.4669C28.6202 45.6027 28.7673 45.6519 28.8778 45.7391C28.9883 45.8264 29.0536 45.9457 29.0601 46.0717V46.3063C29.0653 46.4323 29.1298 46.5519 29.24 46.6395C29.3501 46.7272 29.4974 46.776 29.6505 46.776H30.4291C30.507 46.776 30.5842 46.7631 30.6561 46.7387C30.7281 46.7142 30.7935 46.6783 30.8486 46.6327C30.9037 46.5875 30.9474 46.5336 30.9772 46.4743C31.007 46.4151 31.0224 46.3519 31.0224 46.2876V45.5833H31.878C32.0312 45.584 32.1783 45.6328 32.2888 45.7205C32.3993 45.8077 32.4646 45.927 32.4712 46.053V46.2876C32.4764 46.4136 32.5408 46.5329 32.651 46.6205C32.7612 46.7081 32.9083 46.7574 33.0615 46.757H33.8401C33.9975 46.757 34.1484 46.7056 34.2596 46.614C34.3708 46.5225 34.4333 46.3982 34.4333 46.2689V45.5646H35.2889C35.4422 45.5653 35.5893 45.6142 35.6998 45.7014C35.8103 45.7891 35.8756 45.908 35.8822 46.034V46.2689C35.8874 46.395 35.9518 46.5142 36.062 46.6018C36.1721 46.6895 36.3194 46.7383 36.4725 46.7383H37.2511C37.4086 46.7383 37.5592 46.687 37.6705 46.5954C37.7818 46.5038 37.8443 46.3795 37.8443 46.2502V45.5459H38.7001C38.8533 45.5463 39.0004 45.5955 39.1109 45.6828C39.2215 45.7704 39.2865 45.8893 39.2934 46.0153V46.2502C39.2984 46.3759 39.3627 46.4955 39.4729 46.5832C39.5831 46.6708 39.7305 46.7196 39.8837 46.7196H40.6622C40.7399 46.7196 40.8172 46.7071 40.8891 46.6823C40.961 46.6579 41.0264 46.622 41.0816 46.5767C41.1366 46.5311 41.1803 46.4776 41.2103 46.4183C41.2399 46.359 41.2554 46.2955 41.2554 46.2312V45.5272H42.1109C42.2641 45.5276 42.4115 45.5768 42.5217 45.6641C42.6322 45.7514 42.6976 45.8706 42.7041 45.9967V46.2312C42.7095 46.3573 42.7738 46.4768 42.884 46.5645C42.9942 46.6518 43.1413 46.701 43.2944 46.701H47.3902C47.5473 46.701 47.6983 46.6492 47.8096 46.5577C47.9209 46.4661 47.9834 46.3422 47.9834 46.2125V42.6633C47.9834 42.5337 47.9209 42.4098 47.8096 42.3182C47.6983 42.2266 47.5473 42.1749 47.3902 42.1749C47.2327 42.1749 47.082 42.1235 46.9707 42.0319C46.8595 41.9404 46.797 41.8165 46.797 41.6868V41.5295C46.797 41.4656 46.8121 41.402 46.8421 41.3427C46.8717 41.2835 46.9155 41.2296 46.9707 41.1843C47.0257 41.1391 47.091 41.1028 47.1629 41.0784C47.2352 41.054 47.3121 41.0414 47.3902 41.0414C47.4758 41.0525 47.5632 41.0482 47.6467 41.0288C47.7301 41.0091 47.8074 40.975 47.8728 40.9279C47.9386 40.8812 47.9906 40.8234 48.026 40.758C48.0614 40.693 48.0788 40.6219 48.0773 40.5508V39.8864C48.0773 39.7567 48.0148 39.6328 47.9035 39.5412C47.7923 39.4496 47.6416 39.3983 47.4841 39.3983C47.3269 39.3983 47.1759 39.3465 47.0647 39.255C46.9534 39.1634 46.8909 39.0395 46.8909 38.9098V38.7504C46.8909 38.6207 46.9534 38.4964 47.0647 38.4048C47.1759 38.3133 47.3269 38.2619 47.4841 38.2619C47.6416 38.2619 47.7923 38.2105 47.9035 38.119C48.0148 38.0274 48.0773 37.9031 48.0773 37.7738V37.1094C48.0773 36.9801 48.0148 36.8558 47.9035 36.7642C47.7923 36.6726 47.6416 36.6213 47.4841 36.6213C47.3269 36.6213 47.1759 36.5696 47.0647 36.4783C46.9534 36.3868 46.8909 36.2625 46.8909 36.1328V35.9755C46.8909 35.8462 46.9534 35.722 47.0647 35.6304C47.1759 35.5389 47.3269 35.4874 47.4841 35.4874C47.6416 35.4874 47.7923 35.436 47.9035 35.3444C48.0148 35.2528 48.0773 35.1286 48.0773 34.9992V34.3349C48.0773 34.2054 48.0148 34.0812 47.9035 33.9896C47.7923 33.898 47.6416 33.8466 47.4841 33.8466C47.3269 33.8466 47.1759 33.7952 47.0647 33.7036C46.9534 33.612 46.8909 33.4878 46.8909 33.3583V33.1987C46.8909 33.0692 46.9534 32.945 47.0647 32.8535C47.1759 32.7619 47.3269 32.7105 47.4841 32.7105C47.6416 32.7105 47.7923 32.659 47.9035 32.5675C48.0148 32.4759 48.0773 32.3517 48.0773 32.2222V31.5579C48.0773 31.4938 48.0621 31.4303 48.0322 31.3711C48.0025 31.3118 47.9588 31.258 47.9035 31.2127C47.8486 31.1673 47.7832 31.1313 47.7113 31.1068C47.6391 31.0823 47.5621 31.0696 47.4841 31.0696C47.4064 31.0696 47.3291 31.057 47.2572 31.0325C47.1853 31.0079 47.1199 30.972 47.0647 30.9267C47.0098 30.8813 46.966 30.8275 46.9361 30.7682C46.9064 30.709 46.8909 30.6455 46.8909 30.5814V30.4241C46.8909 30.36 46.9064 30.2965 46.9361 30.2373C46.966 30.178 47.0098 30.1242 47.0647 30.0789C47.1199 30.0336 47.1853 29.9976 47.2572 29.973C47.3291 29.9485 47.4064 29.9359 47.4841 29.9359C47.6416 29.9359 47.7923 29.8844 47.9035 29.7929C48.0148 29.7013 48.0773 29.5771 48.0773 29.4476V28.7833C48.0773 28.6538 48.0148 28.5296 47.9035 28.4381C47.7923 28.3465 47.6416 28.2951 47.4841 28.2951C47.3269 28.2951 47.1759 28.2436 47.0647 28.1521C46.9534 28.0605 46.8909 27.9363 46.8909 27.8068V27.6402C46.8909 27.5107 46.9534 27.3865 47.0647 27.2949C47.1759 27.2033 47.3269 27.1519 47.4841 27.1519C47.6416 27.1519 47.7923 27.1004 47.9035 27.0089C48.0148 26.9174 48.0773 26.7932 48.0773 26.6636V25.997C48.0773 25.8675 48.0148 25.7433 47.9035 25.6518C47.7923 25.5602 47.6416 25.5087 47.4841 25.5087C47.3269 25.5087 47.1759 25.4573 47.0647 25.3657C46.9534 25.2742 46.8909 25.15 46.8909 25.0205V24.8632C46.8909 24.7337 46.9534 24.6095 47.0647 24.518C47.1759 24.4264 47.3269 24.375 47.4841 24.375C47.5621 24.375 47.6398 24.3623 47.7117 24.3376C47.784 24.3129 47.8497 24.2767 47.9046 24.2311C47.9599 24.1855 48.0033 24.1314 48.0332 24.0719C48.0629 24.0124 48.0777 23.9487 48.0773 23.8844V23.2177C48.0766 23.0886 48.0137 22.965 47.9028 22.874C47.7915 22.7829 47.6409 22.7318 47.4841 22.7318C47.3269 22.7318 47.1759 22.6804 47.0647 22.5888C46.9534 22.4972 46.8909 22.373 46.8909 22.2436V22.0839C46.8909 21.9544 46.9534 21.8302 47.0647 21.7387C47.1759 21.6471 47.3269 21.5957 47.4841 21.5957C47.6416 21.5957 47.7923 21.5443 47.9035 21.4527C48.0148 21.3611 48.0773 21.2369 48.0773 21.1074V20.4431C48.0773 20.3136 48.0148 20.1894 47.9035 20.0979C47.7923 20.0063 47.6416 19.9549 47.4841 19.9549C47.3269 19.9549 47.1759 19.9034 47.0647 19.8119C46.9534 19.7203 46.8909 19.5961 46.8909 19.4666V19.3093C46.8909 19.1799 46.9534 19.0557 47.0647 18.9641C47.1759 18.8725 47.3269 18.8211 47.4841 18.8211C47.6405 18.8211 47.7905 18.7703 47.9017 18.6797C48.0126 18.5892 48.0759 18.4662 48.0773 18.3375ZM42.7413 41.6961H22.2667C22.1483 41.6969 22.0324 41.6681 21.9341 41.6139C21.8358 41.5597 21.7596 41.4824 21.7153 41.3919C21.671 41.3018 21.6608 41.2027 21.6858 41.1075C21.7109 41.012 21.7702 40.9254 21.856 40.8582L42.3219 24.6614C42.4061 24.5951 42.5116 24.5506 42.6261 24.5334C42.7402 24.5162 42.8584 24.527 42.9653 24.5645C43.0723 24.602 43.1633 24.6646 43.2276 24.7444C43.2915 24.8242 43.3259 24.9178 43.3259 25.0134V41.2102C43.3251 41.3381 43.2637 41.4605 43.1543 41.5514C43.0448 41.6423 42.8967 41.6943 42.7413 41.6961Z" fill="#00213C"/>
<path d="M61.0963 8.57381C60.8969 8.12774 60.6144 7.73123 60.2488 7.36776C60.066 7.20255 59.8832 7.05386 59.6838 6.92169C60.4316 6.1452 60.6476 5.33566 60.6476 4.67482C60.6476 4.19571 60.5645 3.76616 60.3984 3.38617C60.2156 2.97314 59.933 2.60968 59.5508 2.32882C58.8528 1.81666 57.8557 1.56885 56.493 1.56885H55.6953H53.7676V13.8275H55.3962H56.493C57.889 13.8275 59.0356 13.5467 59.8832 13.018C60.3651 12.7041 60.7473 12.3076 61.0132 11.845C61.2791 11.3494 61.4121 10.8042 61.4121 10.1929C61.4121 9.61464 61.3124 9.06944 61.0963 8.57381ZM56.493 3.28705C57.1411 3.28705 58.0385 3.36965 58.5039 3.71659C58.6867 3.84876 58.9027 4.08006 58.9027 4.67482C58.9027 5.07133 58.7365 5.41827 58.3875 5.74869C58.0551 6.07912 57.5732 6.35997 56.9583 6.60779C56.5262 6.78952 56.0775 6.92169 55.6953 7.0043V3.28705H56.493ZM58.9359 11.5641C58.3875 11.9111 57.54 12.0928 56.493 12.0928H55.6953V8.78858C56.2105 8.67293 56.8919 8.50772 57.5732 8.22686C57.756 8.16078 57.9222 8.07817 58.0884 8.01209C58.4706 8.1773 58.7864 8.37555 59.0356 8.62337C59.4677 9.0364 59.6838 9.54855 59.6838 10.1929C59.6838 10.8042 59.4511 11.2337 58.9359 11.5641ZM67.9912 13.8275C69.1545 13.8275 70.2347 13.4806 71.049 12.8528C71.5143 12.4893 71.8799 12.0432 72.1458 11.5311C72.4117 10.9694 72.5613 10.3416 72.5613 9.6642V1.56885H70.6169V9.6642C70.6169 10.3911 70.3677 10.9528 69.8691 11.3328C69.3872 11.6963 68.7058 11.9111 67.9912 11.9111C67.26 11.9111 66.5786 11.6963 66.1133 11.3328C65.6148 10.9528 65.3489 10.3911 65.3489 9.6642V1.56885H63.4211V9.6642C63.4211 10.3416 63.5541 10.9694 63.8366 11.5311C64.0859 12.0432 64.4515 12.4893 64.9334 12.8528C65.7477 13.4806 66.8279 13.8275 67.9912 13.8275ZM82.6224 3.40269C82.0906 2.80793 81.4258 2.34534 80.6448 2.04796C79.8471 1.71754 78.9497 1.56885 77.9526 1.56885H76.9554H75.0277V13.8275H75.6758H77.9526C78.9497 13.8275 79.8471 13.6623 80.6448 13.3484C81.4258 13.051 82.0906 12.5884 82.6224 11.9937C83.6028 10.9198 84.118 9.4329 84.118 7.69819C84.118 5.96347 83.6028 4.47657 82.6224 3.40269ZM81.1932 10.705C80.462 11.498 79.3817 11.9111 77.9526 11.9111H76.9554V3.4853H77.9526C79.3817 3.4853 80.462 3.88181 81.1932 4.69134C81.8413 5.40175 82.1903 6.44258 82.1903 7.69819C82.1903 8.93727 81.8413 9.99462 81.1932 10.705ZM53.7676 18.09V30.3487H55.6953V26.2018H57.4236C59.0523 26.2018 59.9995 25.541 60.4981 24.9793C61.1628 24.2689 61.4952 23.2776 61.4952 22.1377C61.4952 20.9977 61.1628 20.0229 60.4981 19.296C59.9995 18.7508 59.0523 18.09 57.4236 18.09H55.3962H53.7676ZM59.2184 23.8228C58.8196 24.2524 58.2213 24.4671 57.4236 24.4671H55.6953V19.8082H57.4236C58.2213 19.8082 58.8196 20.0395 59.2184 20.469C59.6671 20.9647 59.7669 21.6585 59.7669 22.1377C59.7669 22.6333 59.6671 23.3272 59.2184 23.8228ZM70.8106 30.3487H72.9211L67.57 17.5283L62.2022 30.3487H64.3294L65.3763 27.7218H69.7636L70.8106 30.3487ZM66.0743 26.0036L67.57 22.2698L69.0656 26.0036H66.0743ZM79.7773 25.921C80.4421 25.6897 80.9074 25.3097 81.2065 24.9793C81.8547 24.2689 82.2036 23.2776 82.2036 22.1542C82.2036 21.0142 81.8547 20.0229 81.2065 19.3125C80.708 18.7508 79.7607 18.09 78.1321 18.09H76.1046H74.476V30.3487H76.4038V26.2018H77.8164L80.924 30.3487H83.101L79.7773 25.921ZM76.4038 24.4837V19.8247H78.1321C78.9298 19.8247 79.5281 20.0395 79.9103 20.469C80.3756 20.9647 80.4587 21.6585 80.4587 22.1542C80.4587 22.6333 80.3756 23.3272 79.9103 23.8228C79.5281 24.2524 78.9298 24.4837 78.1321 24.4837H76.4038ZM92.3998 18.09H83.6751V19.8082H87.0653V30.3487H89.0096V19.8082H92.3998V18.09ZM103.867 30.9104V18.09H101.922V25.954L94.178 17.5117V30.3487H96.1057V22.4681L103.867 30.9104ZM108.375 19.8082H113.842V18.09H108.358H106.447V30.3487H108.358H113.842V28.6139H108.375V24.8141H112.879V23.0794H108.375V19.8082ZM121.421 25.921C122.086 25.6897 122.551 25.3097 122.85 24.9793C123.498 24.2689 123.847 23.2776 123.847 22.1542C123.847 21.0142 123.498 20.0229 122.85 19.3125C122.351 18.7508 121.404 18.09 119.776 18.09H117.748H116.119V30.3487H118.047V26.2018H119.46L122.567 30.3487H124.744L121.421 25.921ZM118.047 24.4837V19.8247H119.776C120.573 19.8247 121.172 20.0395 121.554 20.469C122.019 20.9647 122.102 21.6585 122.102 22.1542C122.102 22.6333 122.019 23.3272 121.554 23.8228C121.172 24.2524 120.573 24.4837 119.776 24.4837H118.047Z" fill="#00213C"/>
<path d="M53.7676 34.6111V46.8698H55.6953V42.723H57.4236C59.0523 42.723 59.9995 42.0621 60.4981 41.5004C61.1628 40.79 61.4952 39.7987 61.4952 38.6588C61.4952 37.5188 61.1628 36.5441 60.4981 35.8171C59.9995 35.2719 59.0523 34.6111 57.4236 34.6111H55.3962H53.7676ZM59.2184 40.3439C58.8196 40.7735 58.2213 40.9882 57.4236 40.9882H55.6953V36.3293H57.4236C58.2213 36.3293 58.8196 36.5606 59.2184 36.9901C59.6671 37.4858 59.7669 38.1796 59.7669 38.6588C59.7669 39.1544 59.6671 39.8483 59.2184 40.3439ZM68.3843 42.4421C69.049 42.2108 69.5143 41.8308 69.8135 41.5004C70.4616 40.79 70.8106 39.7987 70.8106 38.6753C70.8106 37.5353 70.4616 36.5441 69.8135 35.8336C69.3149 35.2719 68.3676 34.6111 66.739 34.6111H64.7116H63.083V46.8698H65.0107V42.723H66.4233L69.5309 46.8698H71.708L68.3843 42.4421ZM65.0107 41.0048V36.3458H66.739C67.5367 36.3458 68.135 36.5606 68.5172 36.9901C68.9825 37.4858 69.0656 38.1796 69.0656 38.6753C69.0656 39.1544 68.9825 39.8483 68.5172 40.3439C68.135 40.7735 67.5367 41.0048 66.739 41.0048H65.0107ZM78.717 46.8698C79.5479 46.8698 80.3622 46.7045 81.1267 46.3906C81.8579 46.0767 82.506 45.6307 83.0877 45.069C83.6527 44.5072 84.0848 43.8629 84.4005 43.1195C84.7163 42.376 84.8825 41.5665 84.8825 40.7404C84.8825 39.9144 84.7163 39.1048 84.4005 38.3449C84.0848 37.6179 83.6527 36.9736 83.0877 36.3954C82.506 35.8336 81.8579 35.4041 81.1267 35.0902C80.3622 34.7763 79.5479 34.6111 78.717 34.6111C77.8861 34.6111 77.0718 34.7763 76.3239 35.0902C75.5761 35.4041 74.928 35.8336 74.3629 36.3954C73.7979 36.9736 73.3492 37.6179 73.0335 38.3449C72.7177 39.1048 72.5515 39.9144 72.5515 40.7404C72.5515 41.5665 72.7177 42.376 73.0335 43.1195C73.3492 43.8629 73.7979 44.5072 74.3629 45.069C74.928 45.6307 75.5761 46.0767 76.3239 46.3906C77.0718 46.7045 77.8861 46.8698 78.717 46.8698ZM78.717 36.5275C79.8471 36.5275 80.9106 36.9736 81.7083 37.7666C82.506 38.5596 82.9547 39.617 82.9547 40.7404C82.9547 41.8639 82.506 42.9212 81.7083 43.7142C80.9106 44.5072 79.8471 44.9533 78.717 44.9533C77.5869 44.9533 76.5234 44.5072 75.7257 43.7142C74.928 42.9212 74.4793 41.8639 74.4793 40.7404C74.4793 39.617 74.928 38.5596 75.7257 37.7666C76.5234 36.9736 77.5869 36.5275 78.717 36.5275Z" fill="#F7875F"/>
</g>
<defs>
<clipPath id="clip0">
<rect width="125" height="51" fill="white" transform="translate(0.92627)"/>
</clipPath>
</defs>
</svg>
