<svg width="100" height="126" viewBox="0 0 100 126" fill="none" xmlns="http://www.w3.org/2000/svg">
<path d="M18.75 0.0144043H81.25C86.2228 0.0144043 90.992 1.98985 94.5083 5.50615C98.0246 9.02246 100 13.7916 100 18.7644V106.264C100 111.237 98.0246 116.006 94.5083 119.523C90.992 123.039 86.2228 125.014 81.25 125.014H18.75C13.7772 125.014 9.00806 123.039 5.49175 119.523C1.97544 116.006 0 111.237 0 106.264V18.7644C0 13.7916 1.97544 9.02246 5.49175 5.50615C9.00806 1.98985 13.7772 0.0144043 18.75 0.0144043ZM25 43.7644C23.3424 43.7644 21.7527 44.4229 20.5806 45.595C19.4085 46.7671 18.75 48.3568 18.75 50.0144C18.75 51.672 19.4085 53.2617 20.5806 54.4338C21.7527 55.6059 23.3424 56.2644 25 56.2644H75C76.6576 56.2644 78.2473 55.6059 79.4194 54.4338C80.5915 53.2617 81.25 51.672 81.25 50.0144C81.25 48.3568 80.5915 46.7671 79.4194 45.595C78.2473 44.4229 76.6576 43.7644 75 43.7644H25ZM25 93.7644C23.3424 93.7644 21.7527 94.4229 20.5806 95.595C19.4085 96.7671 18.75 98.3568 18.75 100.014C18.75 101.672 19.4085 103.262 20.5806 104.434C21.7527 105.606 23.3424 106.264 25 106.264H56.25C57.9076 106.264 59.4973 105.606 60.6694 104.434C61.8415 103.262 62.5 101.672 62.5 100.014C62.5 98.3568 61.8415 96.7671 60.6694 95.595C59.4973 94.4229 57.9076 93.7644 56.25 93.7644H25ZM25 18.7644C23.3424 18.7644 21.7527 19.4229 20.5806 20.595C19.4085 21.7671 18.75 23.3568 18.75 25.0144C18.75 26.672 19.4085 28.2617 20.5806 29.4338C21.7527 30.6059 23.3424 31.2644 25 31.2644H75C76.6576 31.2644 78.2473 30.6059 79.4194 29.4338C80.5915 28.2617 81.25 26.672 81.25 25.0144C81.25 23.3568 80.5915 21.7671 79.4194 20.595C78.2473 19.4229 76.6576 18.7644 75 18.7644H25ZM25 68.7644C23.3424 68.7644 21.7527 69.4229 20.5806 70.595C19.4085 71.7671 18.75 73.3568 18.75 75.0144C18.75 76.672 19.4085 78.2617 20.5806 79.4338C21.7527 80.6059 23.3424 81.2644 25 81.2644H75C76.6576 81.2644 78.2473 80.6059 79.4194 79.4338C80.5915 78.2617 81.25 76.672 81.25 75.0144C81.25 73.3568 80.5915 71.7671 79.4194 70.595C78.2473 69.4229 76.6576 68.7644 75 68.7644H25Z" fill="#E9EFF6"/>
</svg>
