<svg width="101" height="126" viewBox="0 0 101 126" fill="none" xmlns="http://www.w3.org/2000/svg">
<path d="M0.553711 12.5144V106.264C0.553711 113.139 6.17871 118.764 13.0537 118.764V122.014C13.0537 123.671 14.3969 125.014 16.0537 125.014H22.5537C24.2106 125.014 25.5537 123.671 25.5537 122.014V118.764H47.4287V0.0144043H13.0537C6.17871 0.0144043 0.553711 5.6394 0.553711 12.5144ZM25.5537 51.0144C25.5537 50.4621 26.0014 50.0144 26.5537 50.0144H37.0537C37.606 50.0144 38.0537 50.4621 38.0537 51.0144V67.7644C38.0537 68.3167 37.606 68.7644 37.0537 68.7644H26.5537C26.0014 68.7644 25.5537 68.3167 25.5537 67.7644V51.0144ZM88.0537 0.0144043H53.6787V118.764H75.5537V122.014C75.5537 123.671 76.8969 125.014 78.5537 125.014H85.0537C86.7106 125.014 88.0537 123.671 88.0537 122.014V118.764C94.9287 118.764 100.554 113.139 100.554 106.264V12.5144C100.554 5.6394 94.9287 0.0144043 88.0537 0.0144043ZM75.5537 67.7644C75.5537 68.3167 75.106 68.7644 74.5537 68.7644H64.0537C63.5014 68.7644 63.0537 68.3167 63.0537 67.7644V51.0144C63.0537 50.4621 63.5014 50.0144 64.0537 50.0144H74.5537C75.106 50.0144 75.5537 50.4621 75.5537 51.0144V67.7644Z" fill="#E9EFF6"/>
</svg>
