<svg width="126" height="126" viewBox="0 0 126 126" fill="none" xmlns="http://www.w3.org/2000/svg">
<path d="M125.054 0.034668V58.4097L104.054 38.2847L83.929 58.4097C81.5123 60.8263 78.6373 62.0347 75.304 62.0347C71.9706 62.0347 69.0956 60.8263 66.679 58.4097C64.2623 55.993 63.054 53.118 63.054 49.7847C63.054 46.4513 64.2623 43.5763 66.679 41.1597L86.804 21.0347L66.679 0.034668H125.054ZM38.304 104.035L58.429 125.035H0.0539551V66.6597L21.054 86.7847L41.179 66.6597C43.5956 64.243 46.4706 63.0347 49.804 63.0347C53.1373 63.0347 56.0123 64.243 58.429 66.6597C60.8456 69.0763 62.054 71.9513 62.054 75.2847C62.054 78.618 60.8456 81.493 58.429 83.9097L38.304 104.035Z" fill="#E9EFF6"/>
</svg>
