<svg width="125" height="126" viewBox="0 0 125 126" fill="none" xmlns="http://www.w3.org/2000/svg">
<path d="M27.4071 55.8283C25.5252 55.8283 23.6433 55.9943 21.8168 56.2157V5.5715C21.8168 0.645446 27.7945 -1.84525 31.2815 1.64173L123.05 93.4102C126.537 96.8972 124.102 102.875 119.176 102.875H68.5313C68.7527 101.048 68.9187 99.2218 68.9187 97.34C68.9187 74.4255 50.3215 55.8283 27.4071 55.8283ZM6.87262 100.052C6.76192 99.1665 6.65123 98.2809 6.65123 97.34C6.65123 96.399 6.70657 95.5134 6.87262 94.6279L1.00564 90.0339C0.756913 89.8206 0.588431 89.5288 0.528046 89.2067C0.467661 88.8847 0.518997 88.5517 0.673553 88.2627L6.20844 78.6874C6.54054 78.0785 7.26007 77.8572 7.92426 78.0786L14.7875 80.846C16.2266 79.739 17.7764 78.7981 19.4922 78.1339L20.5438 70.8278C20.5991 70.1637 21.208 69.6655 21.8722 69.6655H32.942C33.6061 69.6655 34.215 70.1637 34.3257 70.8278L35.3773 78.1339C37.0378 78.8534 38.6429 79.739 40.082 80.846L46.9452 78.0786C47.5541 77.8572 48.2736 78.0785 48.661 78.6874L54.1959 88.2627C54.528 88.8716 54.4173 89.5911 53.8638 90.0339L47.9968 94.6279C48.2244 96.4288 48.2244 98.2512 47.9968 100.052L53.8638 104.646C54.1126 104.859 54.281 105.151 54.3414 105.473C54.4018 105.795 54.3505 106.128 54.1959 106.417L48.661 115.993C48.3289 116.601 47.6094 116.823 46.9452 116.601L40.082 113.834C38.6429 114.941 37.0931 115.882 35.3773 116.546L34.3257 123.852C34.215 124.516 33.6615 125.014 32.942 125.014H21.8722C21.208 125.014 20.5992 124.516 20.4885 123.852L19.4368 116.546C17.7764 115.826 16.1712 114.941 14.7875 113.834L7.8689 116.601C7.26007 116.823 6.54053 116.601 6.15309 115.993L0.618202 106.417C0.463646 106.128 0.412317 105.795 0.472702 105.473C0.533087 105.151 0.701562 104.859 0.950287 104.646L6.87262 100.052ZM27.4071 105.642C32.001 105.642 35.7094 101.934 35.7094 97.34C35.7094 92.746 32.001 89.0376 27.4071 89.0376C22.8131 89.0376 19.1047 92.746 19.1047 97.34C19.1047 101.934 22.8131 105.642 27.4071 105.642Z" fill="#E9EFF6"/>
</svg>
