<svg width="117" height="126" viewBox="0 0 117 126" fill="none" xmlns="http://www.w3.org/2000/svg">
<path d="M108.533 111.785V125.035L97.2827 117.722L70.2934 67.0116C68.7614 64.1331 70.2515 60.5851 73.1022 59.0019C76.0387 57.371 79.9809 58.0645 81.5573 61.0306L108.533 111.785ZM77.2827 31.2847C77.2827 36.2575 75.3073 41.0266 71.791 44.5429C68.2747 48.0592 63.5055 50.0347 58.5327 50.0347C57.6171 50.0964 56.6983 50.0964 55.7827 50.0347L19.7827 117.722L8.53272 125.035V111.785L44.7202 43.7847C42.3162 41.0972 40.7381 37.7735 40.175 34.2119C39.612 30.6503 40.0878 27.0019 41.5455 23.7039C43.0033 20.4059 45.381 17.5981 48.3939 15.6171C51.4068 13.6361 54.927 12.5659 58.5327 12.5347V0.034668C60.1903 0.034668 61.78 0.693148 62.9521 1.86525C64.1242 3.03735 64.7827 4.62706 64.7827 6.28467V13.6597C68.4299 14.9491 71.589 17.3351 73.8268 20.4905C76.0647 23.6459 77.2718 27.4163 77.2827 31.2847ZM64.7827 31.2847C64.7827 30.0485 64.4162 28.8402 63.7294 27.8124C63.0426 26.7845 62.0665 25.9835 60.9245 25.5104C59.7825 25.0374 58.5258 24.9136 57.3134 25.1548C56.101 25.3959 54.9874 25.9912 54.1133 26.8653C53.2392 27.7393 52.644 28.853 52.4028 30.0654C52.1616 31.2777 52.2854 32.5344 52.7585 33.6764C53.2315 34.8185 54.0326 35.7946 55.0604 36.4814C56.0882 37.1681 57.2966 37.5347 58.5327 37.5347C60.1903 37.5347 61.78 36.8762 62.9521 35.7041C64.1242 34.532 64.7827 32.9423 64.7827 31.2847ZM3.29561 56.5844C6.94646 52.968 12.8385 52.9984 16.4518 56.6523L21.0327 61.2847L12.0327 78.5347L3.26437 69.7663C-0.379308 66.1227 -0.3653 60.2108 3.29561 56.5844ZM62.08 94.9874C60.1228 96.9446 56.9479 96.9393 54.9972 94.9756L49.1577 89.0972L39.7827 106.285L54.9972 121.499C56.9498 123.452 60.1156 123.452 62.0682 121.499L77.2827 106.285L68.0952 88.9722L62.08 94.9874ZM113.811 56.6249C110.137 52.9861 104.209 53.0167 100.573 56.6933L96.0327 61.2847L105.408 78.5347L113.923 69.8062C117.512 66.1273 117.462 60.242 113.811 56.6249Z" fill="#E9EFF6"/>
</svg>
