<svg width="79" height="126" viewBox="0 0 79 126" fill="none" xmlns="http://www.w3.org/2000/svg">
<path fill-rule="evenodd" clip-rule="evenodd" d="M0 15.6597C0 11.5157 1.6462 7.54138 4.57646 4.61112C7.50671 1.68087 11.481 0.034668 15.625 0.034668H62.5C66.644 0.034668 70.6183 1.68087 73.5485 4.61112C76.4788 7.54138 78.125 11.5157 78.125 15.6597V109.41C78.125 113.554 76.4788 117.528 73.5485 120.458C70.6183 123.388 66.644 125.035 62.5 125.035H15.625C11.481 125.035 7.50671 123.388 4.57646 120.458C1.6462 117.528 0 113.554 0 109.41V15.6597ZM46.875 101.597C46.875 103.669 46.0519 105.656 44.5868 107.121C43.1216 108.587 41.1345 109.41 39.0625 109.41C36.9905 109.41 35.0034 108.587 33.5382 107.121C32.0731 105.656 31.25 103.669 31.25 101.597C31.25 99.5252 32.0731 97.538 33.5382 96.0729C35.0034 94.6078 36.9905 93.7847 39.0625 93.7847C41.1345 93.7847 43.1216 94.6078 44.5868 96.0729C46.0519 97.538 46.875 99.5252 46.875 101.597Z" fill="#E9EFF6"/>
</svg>
