<svg width="50" height="50" viewBox="0 0 50 50" fill="none" xmlns="http://www.w3.org/2000/svg">
<path d="M0 5C0 2.23858 2.23858 0 5 0H45C47.7614 0 50 2.23858 50 5V45C50 47.7614 47.7614 50 45 50H5C2.23858 50 0 47.7614 0 45V5Z" fill="#61A8DE"/>
<path d="M38.8401 11.7578L10.4942 22.6884C8.55971 23.4654 8.57091 24.5446 10.1393 25.0258L17.4168 27.296L34.2548 16.6723C35.051 16.1879 35.7784 16.4485 35.1805 16.9793L21.5384 29.2913H21.5352L21.5384 29.2929L21.0364 36.7942C21.7718 36.7942 22.0963 36.4569 22.5088 36.0588L26.0436 32.6215L33.3963 38.0524C34.752 38.799 35.7257 38.4153 36.063 36.7974L40.8896 14.0504C41.3837 12.0695 40.1334 11.1726 38.8401 11.7578Z" fill="white"/>
</svg>
