<svg width="50" height="50" viewBox="0 0 50 50" fill="none" xmlns="http://www.w3.org/2000/svg">
<path d="M0 5C0 2.23858 2.23858 0 5 0H45C47.7614 0 50 2.23858 50 5V45C50 47.7614 47.7614 50 45 50H5C2.23858 50 0 47.7614 0 45V5Z" fill="#7D3DAF"/>
<path d="M24.2104 9.00466C21.6738 9.03566 16.2203 9.45771 13.1701 12.2911C10.9011 14.5673 10.1089 17.9328 10.0161 22.0943C9.93904 26.2408 9.84619 34.0277 17.2594 36.148V39.3774C17.2594 39.3774 17.213 40.6696 18.0566 40.9346C19.0957 41.2676 19.6874 40.2735 20.6752 39.2054L22.5174 37.0961C27.5896 37.5232 31.4745 36.5391 31.922 36.393C32.9512 36.06 38.7485 35.3099 39.6958 27.5219C40.6678 19.479 39.2226 14.4113 36.6139 12.119H36.5981C35.8109 11.385 32.647 9.05066 25.5785 9.02466C25.5785 9.02466 25.054 8.98865 24.2104 9.00366V9.00466ZM24.2973 11.2659C25.0174 11.2609 25.455 11.2919 25.455 11.2919C31.438 11.3079 34.2936 13.1312 34.9673 13.7452C37.1641 15.6515 38.2961 20.22 37.4674 26.9349C36.6801 33.4457 31.9783 33.8577 31.1081 34.1388C30.7376 34.2588 27.316 35.1129 23.0053 34.8318C23.0053 34.8318 19.7951 38.7543 18.7915 39.7645C18.6325 39.9415 18.4468 39.9935 18.3282 39.9675C18.1583 39.9255 18.107 39.7124 18.1168 39.4204L18.1475 34.0607C11.8603 32.3005 12.2307 25.6587 12.2979 22.1893C12.3749 18.7199 13.0179 15.8815 14.9322 13.9593C17.5094 11.6 22.14 11.2819 24.2954 11.2659H24.2973ZM24.7715 14.7344C24.7197 14.7338 24.6684 14.7437 24.6204 14.7633C24.5725 14.783 24.5288 14.8121 24.492 14.8489C24.4552 14.8857 24.4259 14.9295 24.4059 14.9778C24.3859 15.0262 24.3755 15.078 24.3754 15.1304C24.3754 15.3544 24.5552 15.5315 24.7715 15.5315C25.7509 15.5126 26.7242 15.6902 27.6355 16.0542C28.5467 16.4181 29.3778 16.961 30.0808 17.6517C31.516 19.0629 32.2154 20.9591 32.242 23.4384C32.242 23.6575 32.4169 23.8395 32.6381 23.8395V23.8235C32.7424 23.8238 32.8426 23.7823 32.9168 23.7081C32.991 23.6339 33.0332 23.533 33.0342 23.4274C33.0822 22.2604 32.8953 21.0958 32.4848 20.0042C32.0744 18.9126 31.4491 17.9169 30.6468 17.0777C29.0831 15.5305 27.1016 14.7334 24.7715 14.7334V14.7344ZM19.5649 15.6515C19.2853 15.6101 19.0002 15.6669 18.7569 15.8125H18.7362C18.1714 16.1477 17.6627 16.5713 17.2288 17.0677C16.8683 17.4897 16.6727 17.9168 16.6213 18.3278C16.5907 18.5728 16.6115 18.8179 16.6836 19.0519L16.7093 19.0679C17.1152 20.276 17.6457 21.4382 18.2936 22.5323C19.1283 24.0695 20.1556 25.4911 21.3498 26.7618L21.3854 26.8139L21.4417 26.8559L21.4773 26.8979L21.5187 26.9339C22.7784 28.1466 24.1858 29.1915 25.7069 30.0433C27.4454 31.0014 28.5003 31.4544 29.1335 31.6425V31.6525C29.3192 31.7095 29.4881 31.7355 29.658 31.7355C30.1976 31.6954 30.7085 31.4736 31.109 31.1054C31.597 30.666 32.0108 30.1488 32.3339 29.5742V29.5642C32.6371 28.9861 32.5344 28.4391 32.0968 28.069C31.2205 27.2934 30.2728 26.6045 29.2668 26.0118C28.5932 25.6417 27.9087 25.8657 27.6311 26.2408L27.0394 26.9959C26.7362 27.3709 26.185 27.3189 26.185 27.3189L26.1692 27.3289C22.059 26.2658 20.9626 22.0523 20.9626 22.0523C20.9626 22.0523 20.9113 21.4792 21.2915 21.1872L22.0324 20.5831C22.387 20.291 22.6339 19.599 22.2536 18.9159C21.6722 17.8959 20.9933 16.9362 20.2267 16.0505C20.0591 15.8417 19.824 15.6997 19.5629 15.6495L19.5649 15.6515ZM25.455 16.8396C24.9305 16.8396 24.9305 17.6417 25.46 17.6417C26.1122 17.6524 26.7559 17.7932 27.3544 18.0559C27.9528 18.3186 28.4943 18.6982 28.9478 19.1729C29.3615 19.635 29.6794 20.1764 29.8827 20.7651C30.0859 21.3539 30.1704 21.9779 30.1311 22.6003C30.133 22.7057 30.1754 22.8061 30.2495 22.8801C30.3235 22.9541 30.4232 22.9959 30.5272 22.9964L30.5431 23.0174C30.6479 23.0166 30.7482 22.9741 30.8223 22.8991C30.8964 22.824 30.9384 22.7225 30.9391 22.6163C30.9747 21.0271 30.4867 19.694 29.5296 18.6258C28.5675 17.5577 27.2251 16.9586 25.5113 16.8396H25.455ZM26.104 18.9959C25.5637 18.9799 25.5429 19.798 26.0783 19.814C27.3802 19.882 28.0124 20.5481 28.0953 21.9183C28.0972 22.0223 28.1391 22.1214 28.2122 22.1945C28.2853 22.2676 28.3838 22.3088 28.4865 22.3093H28.5023C28.5551 22.307 28.607 22.2941 28.6548 22.2713C28.7026 22.2485 28.7455 22.2163 28.7809 22.1765C28.8163 22.1368 28.8435 22.0903 28.861 22.0397C28.8785 21.9892 28.8858 21.9357 28.8826 21.8822C28.7898 20.096 27.8277 19.0899 26.1198 18.9969H26.104V18.9959Z" fill="white"/>
</svg>
